<svg xmlns="http://www.w3.org/2000/svg" viewBox="0 0 261.404 261.402">
  <defs>
    <style>
      .cls-1 {
        fill: #fff;
      }

      .cls-2 {
        fill: #222b57;
      }

      .cls-3 {
        fill: #ac966e;
      }
    </style>
  </defs>
  <g id="Layer_2" data-name="Layer 2">
    <g id="Layer_1-2" data-name="Layer 1">
      <g>
        <path class="cls-1" d="M130.7,0C58.633,0,0,58.63,0,130.7S58.633,261.4,130.7,261.4s130.7-58.633,130.7-130.7S202.772,0,130.7,0"/>
        <g>
          <path class="cls-2" d="M174.187,129.337l-12.026-8.931,5.028-15.012-18.337.239-4.99-16.391-13.088,9.837-13.041-9.614-4.777,15.878H95l5.1,15.491-13.14,9.5,14.922,10.475-5.43,15.408,17.56-.428,4.417,15.271,13.058-9.924,12.593,9.642L149,154l15.554.862-5.25-15.836ZM49.551,157.36,90.9,156.35l4.677-13.732-13.018-9.113Zm60.868,3.518-15.7.257L81.261,199.3l33.009-25.082ZM51.355,105.339,83.04,127.581l11.828-8.5-4.622-13.738ZM80.823,62.254l12.668,38.5,15.93.2,4.341-14.424Zm72.144,98.227-4.3,13.809L178.593,197.2l-12.06-36.382Zm18.753-55.146-4.371,13.174,11.022,8.105,33.5-21.8ZM212.1,157.5l-34.082-25.311L164.5,141.049l5.015,14.084Zm3.495,4.551-44.018-1.1,14.646,41.141A90.89,90.89,0,0,0,215.6,162.047m-81.518,59.071a89.978,89.978,0,0,0,47.09-15.332l-34.078-26.449Zm-2.969-6.2,11.478-39.08-11.2-8.689-11.558,8.779ZM80.39,205.891a89.935,89.935,0,0,0,47.422,15.238L115.677,179.09Zm-5.095-3.7,13.95-40.962-43.485.713A90.887,90.887,0,0,0,75.3,202.186M43.771,155.809,78.63,130.752,43.589,106.223a90.049,90.049,0,0,0,.182,49.586m1.748-55.661,43.164.549L74.844,59.571a90.846,90.846,0,0,0-29.325,40.577m82.163-59.873A89.952,89.952,0,0,0,80.069,55.721L115.2,81.752Zm3.068,5.911L119.169,84.691l11.369,8.423,11.853-8.7ZM181.4,55.774A89.962,89.962,0,0,0,134,40.283l12.5,41.11Zm.864,4.608-34.31,25.783,4.414,14.51,16.454-.162Zm4.564-.6-13.494,40.684,42.515-.42a90.877,90.877,0,0,0-29.021-40.264m30.955,46.338-35.573,23.316,35.5,26.106a90.012,90.012,0,0,0,.077-49.422"/>
          <path class="cls-2" d="M144.648,249.5l-1.934-17.536-3.792.418-5.3,4.872,2.478,2.71,2.991-2.887,1.421,12.879Zm14.781-2.3-3.2-12.556-2.559,3.276-2.831-2.34,4.571-5.562,3.7-.941,4.355,17.1Zm-36.013-6.588a2.75,2.75,0,0,1-2.083.6,2.652,2.652,0,0,1-1.932-.948,2.743,2.743,0,0,1-.585-2.036,2.82,2.82,0,0,1,.928-1.987,2.714,2.714,0,0,1,2.1-.613,2.544,2.544,0,0,1,1.938,1,2.893,2.893,0,0,1,.576,2.035,2.719,2.719,0,0,1-.94,1.948m4.751-4.209a5.99,5.99,0,0,0-1.311-2.108,6.5,6.5,0,0,0-2.089-1.435,8.3,8.3,0,0,0-2.667-.657,8.2,8.2,0,0,0-2.713.213,6.557,6.557,0,0,0-2.31,1.074,5.847,5.847,0,0,0-1.653,1.889,6.359,6.359,0,0,0-.767,2.636,5.653,5.653,0,0,0,1.392,4.3,5.594,5.594,0,0,0,1.739,1.318,5.981,5.981,0,0,0,2.172.592,4.217,4.217,0,0,0,.637,0,2.913,2.913,0,0,0,.621-.1l-.058.071-4.872,5.7,5.036.415,4.766-5.984a16.48,16.48,0,0,0,1.628-2.479,7.161,7.161,0,0,0,.78-2.8,6.071,6.071,0,0,0-.331-2.653M99.933,246.723l3.2-12.559-3.814,1.652-1.372-3.408,6.678-2.7,3.7.941-4.348,17.1Zm148.821-82.487a2.173,2.173,0,0,0,1-1.351,2.094,2.094,0,0,0-.2-1.657,2.01,2.01,0,0,0-1.262-.985,1.972,1.972,0,0,0-1.577.219,2.138,2.138,0,0,0-.994,1.336,2.191,2.191,0,0,0,.173,1.664,1.939,1.939,0,0,0,1.26,1,1.992,1.992,0,0,0,1.6-.223m-21.583-5.267,16.684,4.5,1.094-4.053-16.684-4.5Zm15.183-8.771a3.757,3.757,0,0,0,1.269-1.239,3.967,3.967,0,0,0,.632-1.6,5.118,5.118,0,0,0,.043-.845,2.192,2.192,0,0,0-.17-.8,1.856,1.856,0,0,0-.453-.644,1.429,1.429,0,0,0-.8-.346,1.357,1.357,0,0,0-.75.08,1.6,1.6,0,0,0-.582.461,4.892,4.892,0,0,0-.517.777q-.248.457-.526,1.038c-.274.55-.574,1.126-.894,1.721a6.858,6.858,0,0,1-1.17,1.585,4.978,4.978,0,0,1-1.618,1.081,4.183,4.183,0,0,1-2.21.208,5.628,5.628,0,0,1-2.474-.9,5.132,5.132,0,0,1-1.572-1.712,6.308,6.308,0,0,1-.746-2.247,8.907,8.907,0,0,1,0-2.489,10.2,10.2,0,0,1,1.138-3.464,7.584,7.584,0,0,1,2.225-2.6l2.377,3.092a5.049,5.049,0,0,0-1.527,1.477,4.558,4.558,0,0,0-.805,1.969,4.384,4.384,0,0,0-.029.907,2.284,2.284,0,0,0,.21.805,1.608,1.608,0,0,0,.5.6,1.865,1.865,0,0,0,.846.313,1.377,1.377,0,0,0,.854-.125,2.391,2.391,0,0,0,.713-.6,5.631,5.631,0,0,0,.662-1.039q.326-.635.707-1.443a15.5,15.5,0,0,1,.854-1.519,5.455,5.455,0,0,1,1.126-1.271,4.372,4.372,0,0,1,1.518-.8,4.753,4.753,0,0,1,2.022-.1,4.906,4.906,0,0,1,2.361.923,5.072,5.072,0,0,1,1.454,1.755,6.6,6.6,0,0,1,.657,2.261,9.779,9.779,0,0,1-.033,2.436,8.965,8.965,0,0,1-.946,2.886,7.7,7.7,0,0,1-1.941,2.426Zm-11.088-14.691,3.564-.055-.131-8.029,3.589-.059.116,7.174,3.343-.054-.116-7.174,3.27-.054.123,7.589,3.515-.056-.188-11.617-17.28.281Zm12.321-22.253-13.519,2.326-.708-4.113,13.517-2.326-.828-4.812,3.513-.6,2.364,13.735-3.513.6ZM248.6,96.619a2.183,2.183,0,0,0,.131-1.671,2.112,2.112,0,0,0-1.046-1.3,2.009,2.009,0,0,0-1.592-.167,1.969,1.969,0,0,0-1.221,1.018,2.112,2.112,0,0,0-.136,1.661,2.19,2.19,0,0,0,1.024,1.321,1.948,1.948,0,0,0,1.6.18,1.987,1.987,0,0,0,1.243-1.039m-21.106,6.948,16.542-5-1.215-4.019-16.542,5Zm8.217-15.552a3.75,3.75,0,0,0,.423-1.724,3.983,3.983,0,0,0-.313-1.691,4.93,4.93,0,0,0-.41-.739,2.207,2.207,0,0,0-.569-.589,1.88,1.88,0,0,0-.723-.3,1.412,1.412,0,0,0-.864.131,1.35,1.35,0,0,0-.595.465,1.619,1.619,0,0,0-.249.7,4.9,4.9,0,0,0-.027.932c.022.348.055.733.1,1.158q.089.923.152,1.934a6.794,6.794,0,0,1-.152,1.966,4.952,4.952,0,0,1-.8,1.774,4.2,4.2,0,0,1-1.765,1.347,5.637,5.637,0,0,1-2.576.546,5.127,5.127,0,0,1-2.239-.618,6.324,6.324,0,0,1-1.823-1.511,8.9,8.9,0,0,1-1.315-2.113,10.151,10.151,0,0,1-.871-3.542,7.574,7.574,0,0,1,.51-3.38l3.656,1.364a5.026,5.026,0,0,0-.513,2.059,4.511,4.511,0,0,0,.361,2.1,4,4,0,0,0,.457.785,2.2,2.2,0,0,0,.6.574,1.578,1.578,0,0,0,.749.239,1.837,1.837,0,0,0,.882-.178,1.4,1.4,0,0,0,.659-.561,2.393,2.393,0,0,0,.284-.889,5.674,5.674,0,0,0,.013-1.234c-.043-.472-.1-1-.166-1.6a15.339,15.339,0,0,1-.082-1.741A5.46,5.46,0,0,1,228.8,82a4.336,4.336,0,0,1,.862-1.481,4.7,4.7,0,0,1,1.662-1.154,4.894,4.894,0,0,1,2.491-.469,5.118,5.118,0,0,1,2.167.718,6.678,6.678,0,0,1,1.753,1.569A9.817,9.817,0,0,1,239,83.266a8.951,8.951,0,0,1,.724,2.949,7.694,7.694,0,0,1-.359,3.087ZM225.176,71.62a1.89,1.89,0,0,1-.928-.256,3.31,3.31,0,0,1-.795-.653,6.7,6.7,0,0,1-.652-.834l-1.092-1.659,3.364-2.213,1.228,1.864a6.962,6.962,0,0,1,.47.849,2.869,2.869,0,0,1,.266.913,1.772,1.772,0,0,1-.127.874,1.727,1.727,0,0,1-.682.76,1.891,1.891,0,0,1-1.052.355M219,82.072l3.694-7.836a5.194,5.194,0,0,0,2.879,1.262,4.589,4.589,0,0,0,2.988-.829,5.042,5.042,0,0,0,1.771-1.838,4.518,4.518,0,0,0,.521-2.138,6.289,6.289,0,0,0-.446-2.251,11.376,11.376,0,0,0-1.119-2.169l-3.623-5.5-14.434,9.5,2.24,3.405,5.728-3.771.782,1.189L216.31,78ZM200.7,58.4l12.694-11.726,7.886,8.533L218.694,57.6l-5.151-5.576-2.4,2.22,4.869,5.271-2.454,2.269-4.871-5.271-2.636,2.435,5.451,5.9-2.618,2.418Zm8.948-15.5L206,40.074l-10.649,7.248-.077-.059,4.342-12.137-3.7-2.87L190.493,49.92l3.3,2.558Zm-16.314-16a1.94,1.94,0,0,1-1.288.959,2.179,2.179,0,0,1-1.651-.267,2.119,2.119,0,0,1-1.035-1.3,1.975,1.975,0,0,1,.2-1.578,2.008,2.008,0,0,1,1.279-.966,2.11,2.11,0,0,1,1.652.239,2.182,2.182,0,0,1,1.046,1.312,1.986,1.986,0,0,1-.2,1.606M179.22,42.671l8.671-14.948,3.631,2.106-8.671,14.949Zm-4.09-2.458,6.387-16.056-3.763-1.5-4.078,10.513-.068-.028L171.336,20.1l-4.423-1.759L160.526,34.4l3.764,1.5,4.087-10.538.069.028,2.285,13.073Zm-17.494-27.82a1.888,1.888,0,0,1-.853,1.293,2.012,2.012,0,0,1-1.516.3,1.969,1.969,0,0,1-1.317-.842,1.9,1.9,0,0,1-.319-1.5,1.785,1.785,0,0,1,.291-.7,2.3,2.3,0,0,1,.538-.546,1.986,1.986,0,0,1,.708-.315,2.069,2.069,0,0,1,.827-.008,2.01,2.01,0,0,1,1.306.828,1.862,1.862,0,0,1,.335,1.489m-5.232-.972a1.9,1.9,0,0,1-.847,1.3,2.027,2.027,0,0,1-1.533.3,1.971,1.971,0,0,1-1.31-.839,1.928,1.928,0,0,1-.315-1.5,1.807,1.807,0,0,1,.29-.7,2.2,2.2,0,0,1,.538-.546,1.918,1.918,0,0,1,.715-.315,2.063,2.063,0,0,1,.81-.01,2.025,2.025,0,0,1,1.323.83,1.859,1.859,0,0,1,.329,1.489m5.3,15.457a7.437,7.437,0,0,1-1.038,2.7,6.144,6.144,0,0,1-1.881,1.883,6.893,6.893,0,0,1-2.578.972,9.451,9.451,0,0,1-6.045-1.123,6.686,6.686,0,0,1-2.021-1.828,6.179,6.179,0,0,1-1.043-2.427,7.625,7.625,0,0,1,.015-2.891l1.967-10.582,4.079.759-1.9,10.246a4.748,4.748,0,0,0-.066,1.354,3.43,3.43,0,0,0,.348,1.218,2.634,2.634,0,0,0,.842.964,4.029,4.029,0,0,0,2.963.551,2.747,2.747,0,0,0,1.144-.6,3.118,3.118,0,0,0,.761-1.013,5.066,5.066,0,0,0,.413-1.289l1.908-10.246,4.1.764Zm-25.434,2.956-8.546-8.718,6.838-8.484-5.209.385-5.641,7.464-.072,0-.518-7.01-4.066.3,1.272,17.234,4.064-.3-.585-7.935.049,0,6.987,7.462ZM107.473,32.9l-3.623-16.9,4.107-.88,3.621,16.9Zm-.144-21.162a1.942,1.942,0,0,1-.312,1.576,2.183,2.183,0,0,1-1.4.913,2.13,2.13,0,0,1-1.644-.272,1.975,1.975,0,0,1-.915-1.3,2.019,2.019,0,0,1,.3-1.574,2.1,2.1,0,0,1,1.383-.933,2.167,2.167,0,0,1,1.656.269,1.98,1.98,0,0,1,.933,1.323m-4.535,22.09L96.728,17.649,92.936,19.07,96.984,29.6l-.067.026L86.467,21.5l-4.456,1.671,6.066,16.181,3.792-1.423L87.812,27.377l.069-.025,10.48,8.14ZM81.4,43.059l-9.63-3.431-.043.026,4.159,6.784-3.475,2.13-9.03-14.735,3.475-2.128L70.526,37.7l.064-.038,1.593-9.22,4.453-2.728L74.444,36.385l11.594,3.83Zm-12,7.778-2.346-2.681-6.041,5.289-2.364-2.7,5.4-4.726-2.2-2.517-5.4,4.726-2.152-2.46,5.711-5-2.316-2.644-8.743,7.651,11.382,13ZM44.477,55.806l10.515,8.808-2.68,3.2L41.8,59l-3.135,3.741-2.729-2.288,8.949-10.683,2.731,2.289Zm-.5,23.678-3.226-1.625-3.866,7.673L31.454,73.367l-2.989-1.5L22.5,83.7l3.14,1.581,3.613-7.171,5.362,11.91,3.232,1.628ZM35.162,99.437,18.855,93.72l1.387-3.962,16.309,5.717ZM26.6,106.705a4.169,4.169,0,0,1,1.293,1.542,5.1,5.1,0,0,1,.479,1.958,8.852,8.852,0,0,1-.159,2.169l-.377,1.942-9.918-1.923.393-2.036a8.782,8.782,0,0,1,.638-2,5.03,5.03,0,0,1,1.146-1.618,4.094,4.094,0,0,1,1.749-.953,5.5,5.5,0,0,1,2.475,0,5.47,5.47,0,0,1,2.281.927m-5.643-5.133a7.273,7.273,0,0,0-3.028,1.7,9.131,9.131,0,0,0-1.992,2.847,15.4,15.4,0,0,0-1.105,3.464l-1.188,6.135L30.606,119l1.226-6.326a12.627,12.627,0,0,0,.176-3.545,9.257,9.257,0,0,0-.941-3.354,7.945,7.945,0,0,0-2.238-2.7,8.5,8.5,0,0,0-3.685-1.569,8.873,8.873,0,0,0-4.189.058m9.192,31.289-17.278-.418.1-4.2,13.638.331.161-6.687,3.636.089Zm.312,5-17.208,1.567.381,4.182,17.209-1.57Zm-5.314,14.892,7.14-1.625.926,4.069-7.139,1.625-8.27,8.541-1.121-4.926,5.418-5.013-7.054-2.176L13.961,148.5Z"/>
          <path class="cls-3" d="M217.708,155.544a90.025,90.025,0,0,0,.076-49.422l-35.572,23.316Zm-2.109,6.5-44.019-1.1,14.647,41.141A90.9,90.9,0,0,0,215.6,162.047m-34.428,43.738-34.077-26.447-13.013,41.779a89.94,89.94,0,0,0,47.09-15.332m-50.058,9.138,11.476-39.082-11.195-8.687-11.558,8.777Zm-3.3,6.207-12.135-42.039-35.286,26.8a89.907,89.907,0,0,0,47.421,15.24M75.3,202.185l13.949-40.961-43.483.713A90.889,90.889,0,0,0,75.3,202.185M43.771,155.809l34.858-25.058L43.59,106.224a90.057,90.057,0,0,0,.181,49.585m1.747-55.662,43.166.55L74.844,59.57a90.882,90.882,0,0,0-29.326,40.577M80.07,55.722,115.2,81.752l12.481-41.477A89.924,89.924,0,0,0,80.07,55.722m39.1,28.968,11.369,8.425,11.853-8.7-11.64-38.226ZM134,40.282l12.5,41.111,34.9-25.62A89.974,89.974,0,0,0,134,40.282m48.264,20.1L147.957,86.166l4.413,14.51,16.455-.162Zm-3.894,66.234,33.5-21.8-40.149.524-4.369,13.173Zm-8.861,28.519L212.1,157.5l-34.081-25.312L164.5,141.048Zm-20.845,19.155L178.592,197.2l-12.058-36.382-13.566-.337Zm-30.24-3.233,13.058-9.924,12.594,9.643L149,154l15.555.862-5.25-15.836,14.88-9.686-12.027-8.931,5.028-15.011-18.338.24-4.991-16.391-13.087,9.835-13.042-9.614-4.775,15.879H95l5.1,15.492-13.141,9.5,14.923,10.475-5.431,15.409,17.561-.429ZM81.262,199.3l33.008-25.083-3.849-13.336-15.707.257Zm1.3-65.791L49.553,157.359l41.352-1.01,4.676-13.732Zm10.93-32.747,15.93.2,4.34-14.423L80.823,62.255Zm-3.246,4.584-38.89,0L83.041,127.58l11.827-8.5Zm96.583-45.556-13.494,40.682,42.516-.42a90.858,90.858,0,0,0-29.022-40.262M225.963,130.7a95.261,95.261,0,1,1-95.269-95.255A95.376,95.376,0,0,1,225.963,130.7M130.7,256.646A125.945,125.945,0,1,1,256.648,130.7,126.09,126.09,0,0,1,130.7,256.646M130.7,0C58.633,0,0,58.63,0,130.7S58.633,261.4,130.7,261.4s130.7-58.633,130.7-130.7S202.772,0,130.7,0"/>
        </g>
      </g>
    </g>
  </g>
</svg>
